<svg xmlns="http://www.w3.org/2000/svg" width="24" height="24" viewBox="0 0 24 24">
  <path d="M 17.944399,8.5272288 10.074096,16.397532 6.4668737,12.79031 7.3916344,11.86555 10.074096,14.541452 17.019638,7.6024682 Z" />
  <path d="M 7.3628954,5.9420338 Q 6.2293474,7.4698103 5.6794922,8.9643742 5.1296368,10.458938 5.1296368,11.993357 q 0,1.534419 0.5498554,3.042268 0.5583146,1.501207 1.6834032,3.022341 H 6.0094053 Q 4.7405084,16.496976 4.10606,14.989128 3.4800709,13.481279 3.4800709,11.993357 q 0,-1.481279 0.6259891,-2.9824853 0.6259892,-1.5012064 1.9033453,-3.0688379 z" />
  <path d="m 17.037619,18.057966 q 1.133545,-1.527776 1.6834,-3.022339 0.549856,-1.494563 0.549856,-3.028982 0,-1.534421 -0.549856,-3.0422701 -0.558312,-1.5012064 -1.6834,-3.0223404 h 1.353488 q 1.268897,1.5609889 1.903345,3.0688379 0.625989,1.5078496 0.625989,2.9957726 0,1.481278 -0.625989,2.982485 -0.625988,1.501205 -1.903345,3.068836 z" />
</svg>
