<svg xmlns="http://www.w3.org/2000/svg" version="1.1" viewBox="0 0 16 16" width="16" height="16">
  <path style="opacity:1;fill:#fff;fill-opacity:1" d="M 6.7335339,12.403949 C 7.1493532,12.467409 7.5719007,12.5 8,12.5 11.11,12.5 13.927,10.78 16,8 15.295145,7.0547525 14.504274,6.2320533 13.645117,5.5578469 l -2.650305,2.629148 C 10.917193,9.584692 9.9683165,10.928051 8.1481831,10.997209 Z M 5.0043808,7.8281492 C 5.0759633,6.4250648 6.0250594,5.072272 7.8516689,5.0027969 L 9.2664661,3.5960513 C 8.8506468,3.5325909 8.4280993,3.5 8,3.5 4.89,3.5 2.073,5.22 0,8 0.70537416,8.9459432 1.49689,9.7691575 2.3567796,10.443641 Z M 8,9.5 c -5.3333333,4.333333 -2.6666667,2.166667 0,0 z" />
  <rect
	 style="opacity:1;fill:#fff;fill-opacity:1;stroke:none;stroke-width:1.03339422;stroke-linecap:round;stroke-linejoin:round;stroke-miterlimit:4;stroke-dasharray:none;stroke-opacity:1;paint-order:markers fill stroke" transform="matrix(0.71092719,-0.70326562,0.68960939,0.72418153,0,0)" y="10.175911" x="-8.547801" height="2.2793601" width="17.648855" />
</svg>
