<svg xmlns="http://www.w3.org/2000/svg" height="16" version="1.1" width="16" viewbox="0 0 16 16">
  <rect y="0.92596889" x="2.857275" height="2.3810625" width="1.0053375" id="rect817" style="fill:#000000;fill-opacity:0.47843137;stroke:none;stroke-width:0.12021257;stroke-linecap:round;stroke-linejoin:round;stroke-miterlimit:4;stroke-dasharray:none;stroke-opacity:1;paint-order:markers fill stroke" />
  <path style="stroke:#000000;stroke-width:0.079;stroke-linejoin:round" d="m 0.2645625,0.66140625 c -0.0748296,0 -0.1587375,0.0839079 -0.1587375,0.1587375 V 3.4128562 c 0,0.07483 0.0839079,0.1587375 0.1587375,0.1587375 h 3.703875 c 0.07483,0 0.1587375,-0.083908 0.1587375,-0.1587375 V 0.82014375 c 0,-0.0748501 -0.083975,-0.1587375 -0.1588248,-0.1587375 z m 2.5927053,0.2645625 h 0.8862916 c 0.078054,0 0.1190531,0.0398859 0.1190531,0.11905315 v 2.1429562 c 0,0.080118 -0.040059,0.1190531 -0.1190531,0.1190531 H 2.8572822 Z M 2.7250009,3.3070312 H 0.48944062 c -0.0790862,0 -0.11905312,-0.038973 -0.11905312,-0.1190531 V 1.0450219 c 0,-0.0811736 0.0400928,-0.11905315 0.11905313,-0.11905315 0,0 1.31811597,2.4e-5 2.23554587,0 z" />
</svg>
