<svg xmlns="http://www.w3.org/2000/svg" height="16" version="1.1" width="16" viewbox="0 0 16 16">
	<path style="stroke-width:0.01602012" d="M 15.584452,1.3612776 C 15.599396,0.84010773 15.148563,0.4 14.652191,0.4 H 1.3492833 C 0.85291094,0.4 0.40211039,0.82740373 0.4154746,1.3612776 H 0.4 V 14.587434 C 0.4,15.146663 0.82502596,15.6 1.3493243,15.6 H 14.650675 C 15.174974,15.6 15.6,15.146663 15.6,14.587438 V 1.3612776 Z M 5.2001695,14.799989 H 1.2000091 v -2.8 h 3.9998214 z m -3.39e-4,-3.59986 -3.9998214,-2.61e-4 -1.377e-4,-2.7998756 h 3.9999591 z m 0,-3.6001328 H 1.2001469 v -2.8 H 5.1998305 Z M 10,14.799989 H 6 v -2.8 h 4 z m 0,-3.59986 H 6 V 8.3999924 h 4 z M 10,7.5999962 H 6 v -2.8 h 4 z m 4.8,7.1999928 h -4 v -2.8 h 4 z m 0,-3.59986 h -4 V 8.3999924 h 4 z m 0,-3.6001328 h -4 v -2.8 h 4 z" />
</svg>
