<?xml version="1.0" encoding="UTF-8" standalone="no"?>
<svg
   xmlns:dc="http://purl.org/dc/elements/1.1/"
   xmlns:cc="http://creativecommons.org/ns#"
   xmlns:rdf="http://www.w3.org/1999/02/22-rdf-syntax-ns#"
   xmlns:svg="http://www.w3.org/2000/svg"
   xmlns="http://www.w3.org/2000/svg"
   id="svg4"
   height="16"
   width="16"
   viewbox="0 0 16 16"
   version="1.1">
  <metadata
     id="metadata10">
    <rdf:RDF>
      <cc:Work
         rdf:about="">
        <dc:format>image/svg+xml</dc:format>
        <dc:type
           rdf:resource="http://purl.org/dc/dcmitype/StillImage" />
        <dc:title></dc:title>
      </cc:Work>
    </rdf:RDF>
  </metadata>
  <defs
     id="defs8" />
  <path
     style="fill:#000000;fill-opacity:1;opacity:1"
     id="path2"
     d="M8 3C4.89 3 2.073 4.72 0 7.5 2.073 10.28 4.89 12 8 12c3.11 0 5.927-1.72 8-4.5C13.927 4.72 11.11 3 8 3zm0 1.5a3 3 0 1 1 0 6 3 3 0 0 1 0-6zM8 6a1.5 1.5 0 1 0 0 3 1.5 1.5 0 0 0 0-3z"
     opacity="0.5" />
</svg>
