<svg xmlns="http://www.w3.org/2000/svg" height="16" width="16">
  <defs>
  </defs>
    <path
       d="m 8.8957253,9.4975672 -2.4237061,0 0,-0.3289795 q 0,-0.5505371 0.2215576,-0.9735108 Q 6.9151344,7.7653894 7.6268044,7.1074305 L 8.0564919,6.7180262 Q 8.4391823,6.3689051 8.6137428,6.0600672 8.7950172,5.7512293 8.7950172,5.4423914 q 0,-0.4699707 -0.3222656,-0.7318115 Q 8.150486,4.4420252 7.5730934,4.4420252 q -0.5438232,0 -1.1749267,0.2282715 -0.6311036,0.2215576 -1.315918,0.6646728 l 0,-2.1081543 Q 5.8946266,2.9448328 6.5660133,2.8105555 7.2374001,2.6762781 7.8617897,2.6762781 q 1.6381836,0 2.4975583,0.6713867 0.859375,0.6646729 0.859375,1.9470215 0,0.657959 -0.261841,1.1816406 -0.26184,0.5169678 -0.892944,1.114502 L 9.6342506,7.9735193 Q 9.1777077,8.3897791 9.0367165,8.644906 8.8957253,8.8933191 8.8957253,9.1954432 l 0,0.302124 z m -2.4237061,0.9936528 2.4237061,0 0,2.390136 -2.4237061,0 0,-2.390136 z"
       style="font-style:normal;font-variant:normal;font-weight:bold;font-stretch:normal;font-size:13.75px;font-family:sans-serif;-inkscape-font-specification:'sans-serif Bold';fill:#ffc107;fill-opacity:1"
       id="path4151" />
</svg>